<svg xmlns="http://www.w3.org/2000/svg" viewBox="0 0 128 128">
  <!-- Qariyb Brand Icon - Location Pin / Q shape -->
  <defs>
    <linearGradient id="brandGradient" x1="0%" y1="0%" x2="100%" y2="100%">
      <stop offset="0%" style="stop-color:#501c80;stop-opacity:1" />
      <stop offset="100%" style="stop-color:#7c3aed;stop-opacity:1" />
    </linearGradient>
  </defs>
  
  <!-- Background circle with brand gradient -->
  <circle cx="64" cy="64" r="60" fill="url(#brandGradient)"/>
  
  <!-- White Q/Location Pin icon -->
  <g transform="translate(32, 20) scale(0.5)">
    <path fill="#ffffff" d="M64 0c-30.11 0-53.76 24.43-54.53 54.53-.54 21.37 16.37 40.71 31.64 56 2.82 2.82 5.94 5.06 7.45 8 20.53 40.32 5.27 40.32 27.58-.56 1.62-3 5.17-4.85 8.22-7.46 17.81-15.27 33.64-32.92 34.18-56C119.23 24.42 94.12 0 64 0zm-.82 80.71a21.63 21.63 0 1 1 21.63-21.63 21.62 21.62 0 0 1-21.63 21.63z"/>
  </g>
</svg>
