<svg xmlns="http://www.w3.org/2000/svg" id="purple_logo" data-name="purple logo" viewBox="0 0 1239.09 467.83"><defs><style>.cls-1{fill:#501c80}</style></defs><path d="M989.01 170.76v144.9a255.6 255.6 0 0 1-4.37 49.21q-.92 4.65-2 9.08-8.2 33.09-27 55-33.32 38.89-95.31 38.9a216 216 0 0 1-30.69-2.13 15 15 0 0 1-12.69-16.44l3.69-34.3a15 15 0 0 1 16.33-13.28c5.62.51 11 .77 16.08.77q25.23 0 38.47-15.19c.23-.26.48-.54.71-.82 10.41-12.82-4.42-30.25-19-22.49q-16.87 9-39.41 9-31.26 0-52.21-16.61a28.06 28.06 0 0 0 1-10.13l-2-25.8c-1.15-14.5-13.23-25.44-28.12-25.44h-.3a12.58 12.58 0 0 1-3.87-.53 182.32 182.32 0 0 1-2.57-31.76v-91.9a15 15 0 0 1 15-15h59.82a15 15 0 0 1 15 15v105.16q0 14.53 8.14 24.14c5.4 6.42 12.83 9.62 22.21 9.62q14.55 0 23.74-12.39t9.19-32.49v-94a15 15 0 0 1 15-15h60.25a2.58 2.58 0 0 1 .48 0 14.94 14.94 0 0 1 14.43 14.92ZM265.01 173.51v-6a8.68 8.68 0 0 0-8.67-8.68h-72.87a8.66 8.66 0 0 0-8.65 8.68v.48c0 7.94-9.62 11.55-15.09 5.83a61.94 61.94 0 0 0-13.33-10.74q-17.32-10.26-41.71-10.28a100.89 100.89 0 0 0-52.36 14.33 103.73 103.73 0 0 0-38.27 39.76Q-.05 232.32-.03 263.1a117.6 117.6 0 0 0 13 54.49 103.26 103.26 0 0 0 36.76 40.61q23.7 15.15 54.5 15.17 24.34 0 41.88-10.26a62.51 62.51 0 0 0 13.58-10.81c5.48-5.7 15.07-2.06 15.07 5.85v74a8.65 8.65 0 0 0 10.28 8.5l72.86-13.81a8.67 8.67 0 0 0 7.05-8.5V351.6a122.1 122.1 0 0 1-22.44-28.62c-10.43-18.27-15.72-38.85-15.72-61.19 0-22.06 5.29-42.36 15.77-60.38a116.89 116.89 0 0 1 22.45-27.9Zm-99.35 91a33.59 33.59 0 0 1-10.36 22.62 30.73 30.73 0 0 1-22.79 9.51c-9 0-16.75-3.23-23.56-9.82a31.53 31.53 0 0 1-10-23.76c0-9 3.26-16.67 10-23.51a31.67 31.67 0 0 1 23.62-10.08c8.47 0 15.9 3.16 22.74 9.64s10.18 13.79 10.41 22.24Zm99.35-78.21a110.2 110.2 0 0 0-14.48 19.78q-14.54 25-14.52 55.77 0 31.21 14.52 56.63a115.19 115.19 0 0 0 14.48 20.16 106.32 106.32 0 0 0 9.16 9v-170a109.17 109.17 0 0 0-9.16 8.7Z" class="cls-1"/><path d="M250.53 206.08q-14.54 25-14.52 55.77 0 31.21 14.52 56.63a115.19 115.19 0 0 0 14.48 20.16v-152.3a110.2 110.2 0 0 0-14.48 19.74Zm14.48-32.52v-6a8.68 8.68 0 0 0-8.67-8.68h-72.87a8.66 8.66 0 0 0-8.65 8.68v.48c0 7.94-9.62 11.55-15.09 5.83a61.94 61.94 0 0 0-13.33-10.79q-17.32-10.26-41.71-10.28a100.89 100.89 0 0 0-52.36 14.33 103.73 103.73 0 0 0-38.27 39.76Q-.05 232.32-.03 263.1a117.6 117.6 0 0 0 13 54.49 103.26 103.26 0 0 0 36.76 40.61q23.7 15.15 54.5 15.17 24.34 0 41.88-10.26a62.51 62.51 0 0 0 13.58-10.81c5.48-5.7 15.07-2.06 15.07 5.85v74a8.65 8.65 0 0 0 10.28 8.5l72.86-13.81a8.67 8.67 0 0 0 7.05-8.5V351.6a122.1 122.1 0 0 1-22.44-28.62c-10.43-18.27-15.72-38.85-15.72-61.19 0-22.06 5.29-42.36 15.77-60.38a116.89 116.89 0 0 1 22.45-27.9Zm-90.19 91.29a42.68 42.68 0 0 1-13.05 28.85 39.9 39.9 0 0 1-29.26 12.19q-17.1 0-29.92-12.39a40.63 40.63 0 0 1-12.83-30.42q0-17.1 12.6-29.92c8.42-8.55 18.44-12.83 30.15-12.83q16.21 0 29.05 12.16t13.26 28.88Z" class="cls-1"/><path d="M508.32 154.38h-8.37a4.91 4.91 0 0 0-2.44.66c-4 2.09-6.77 8.8-6.77 13.13v192.4a9.43 9.43 0 0 0 5 8.32 9.55 9.55 0 0 0 4.38 1.07h7.33a18.37 18.37 0 0 0 2.72-9.7V162.5a18.32 18.32 0 0 0-1.85-8.12Zm-26.74 13.79a27.62 27.62 0 0 1 5.11-15.37h-65.76a9.68 9.68 0 0 0-9.67 9.7v6.2c0 8.68-10.66 13.11-16.59 6.8a68.35 68.35 0 0 0-12.27-10.31 74.31 74.31 0 0 0-41.26-12.39 101.51 101.51 0 0 0-51.7 14.12 105.55 105.55 0 0 0-15.27 10.69 106 106 0 0 0-23.64 28.47q-14.54 25-14.52 55.77 0 31.21 14.52 56.63a115.19 115.19 0 0 0 14.48 20.16 106.32 106.32 0 0 0 9.16 9 108.32 108.32 0 0 0 15 11 97.72 97.72 0 0 0 51.93 14.76q33.16 0 53.63-20a9.68 9.68 0 0 1 16.49 6.84 9.68 9.68 0 0 0 9.67 9.7h63.25a18.09 18.09 0 0 1-2.6-9.39Zm-79.48 96.38a33.63 33.63 0 0 1-10.36 22.62 30.78 30.78 0 0 1-22.82 9.51 33.11 33.11 0 0 1-24-9.82 31.55 31.55 0 0 1-10-23.76 32 32 0 0 1 9.92-23.67 32.43 32.43 0 0 1 24.07-9.92c8.47 0 15.85 3.08 22.57 9.44a32.59 32.59 0 0 1 10.61 22.67Z" class="cls-1"/><path d="M497.51 155.08c-4 2.09-6.77 8.8-6.77 13.13v192.4a9.43 9.43 0 0 0 5 8.32 9.74 9.74 0 0 0 5.27-8.63V162.5a9.67 9.67 0 0 0-3.5-7.42Zm-15.93 13.13a27.62 27.62 0 0 1 5.11-15.41h-65.76a9.68 9.68 0 0 0-9.67 9.7v6.2c0 8.68-10.66 13.11-16.59 6.8a68.35 68.35 0 0 0-12.27-10.31 74.31 74.31 0 0 0-41.26-12.39 101.51 101.51 0 0 0-51.7 14.12 105.55 105.55 0 0 0-15.27 10.69 106 106 0 0 0-23.64 28.47q-14.54 25-14.52 55.77 0 31.21 14.52 56.63a115.19 115.19 0 0 0 14.48 20.16 106.32 106.32 0 0 0 9.16 9 108.32 108.32 0 0 0 15 11 97.72 97.72 0 0 0 51.93 14.76q33.16 0 53.63-20a9.68 9.68 0 0 1 16.49 6.84 9.68 9.68 0 0 0 9.67 9.7h63.25a18.09 18.09 0 0 1-2.6-9.39Zm-70.32 96.63a42.78 42.78 0 0 1-13.06 28.85 39.92 39.92 0 0 1-29.28 12.19 42.26 42.26 0 0 1-30.33-12.39 40.62 40.62 0 0 1-12.82-30.41 43 43 0 0 1 43.15-42.75q16.26 0 28.85 12a41.72 41.72 0 0 1 13.49 29.08ZM773.54 346.91l-2-25.78c-.79-9.87-9.21-17.07-19.11-17h-.17c-.64 0-1.28 0-1.89-.08a18.25 18.25 0 0 1-10.15-3.66 14.71 14.71 0 0 1-1.86-1.6q-5.34-5.31-5.34-15.17V174.28a18.47 18.47 0 0 0-18.47-18.48h-53.7a17.89 17.89 0 0 0-4 .46 19.43 19.43 0 0 1 .84 3.13l9 50.63a18.55 18.55 0 0 1-17.63 21.78q-3.43.12-6.67.31v55.34q0 39.77 20.07 62.84t56 23.08a127.33 127.33 0 0 0 31.43-3.85 85.09 85.09 0 0 0 12.87-4.32 17.7 17.7 0 0 0 7.71-6.49 18.28 18.28 0 0 0 3.1-9.85 12.73 12.73 0 0 0-.03-1.95ZM657.69 211.63l-9-50.64a2.73 2.73 0 0 0-.1-.48 18.38 18.38 0 0 0-6.18 13.77v48.64c2.06-.12 4.2-.2 6.36-.28a9.39 9.39 0 0 0 8.92-11.01Z" class="cls-1"/><path d="M648.74 222.64c-2.16.08-4.3.16-6.36.28q-4.77.27-9.16.69-21.06 2-33.25 7.63-19 8.77-19 27.58v101.75a9.38 9.38 0 0 1-9.39 9.39h-71.45a9.55 9.55 0 0 1-4.38-1.07 9.43 9.43 0 0 1-5-8.32v-192.4c0-4.33 2.8-11 6.77-13.13a4.91 4.91 0 0 1 2.44-.66h73.73c5.2 0 7.21 8.62 7.21 13.79a9.37 9.37 0 0 0 9.46 9.41 9.13 9.13 0 0 0 6.92-3.18 62.86 62.86 0 0 1 10.41-9.41 63.7 63.7 0 0 1 30.66-11.68 9.47 9.47 0 0 1 10.25 7.2 2.73 2.73 0 0 1 .1.48l9 50.64a9.39 9.39 0 0 1-8.96 11.01Z" class="cls-1"/><path d="m657.69 211.63-9-50.64a2.73 2.73 0 0 0-.1-.48 9.42 9.42 0 0 0-6.21-6.77 27.7 27.7 0 0 0-9.13 20.54v49.33q4.4-.42 9.16-.69c2.06-.12 4.2-.2 6.36-.28a9.39 9.39 0 0 0 8.92-11.01Zm115.87 135.28-2-25.78c-.79-9.87-9.21-17.07-19.11-17h-.17c-.64 0-1.28 0-1.89-.08a18.25 18.25 0 0 1-10.15-3.66 14.71 14.71 0 0 1-1.86-1.6q-5.34-5.31-5.34-15.17V174.28a18.47 18.47 0 0 0-18.47-18.48h-53.72a17.89 17.89 0 0 0-4 .46 19.43 19.43 0 0 1 .84 3.13l9 50.63a18.55 18.55 0 0 1-17.63 21.78q-3.43.12-6.67.31v55.34q0 39.77 20.07 62.84t56 23.08a127.33 127.33 0 0 0 31.43-3.85 85.09 85.09 0 0 0 12.87-4.32 17.7 17.7 0 0 0 7.71-6.49 18.28 18.28 0 0 0 3.1-9.85 12.73 12.73 0 0 0-.03-1.95Z" class="cls-1"/><path d="m657.69 211.63-9-50.64a2.73 2.73 0 0 0-.1-.48 9.47 9.47 0 0 0-10.25-7.2 63.7 63.7 0 0 0-30.65 11.68 62.86 62.86 0 0 0-10.33 9.41 9.13 9.13 0 0 1-6.92 3.18 9.37 9.37 0 0 1-9.46-9.41c0-5.17-2-13.79-7.21-13.79h-73.82a4.91 4.91 0 0 0-2.44.66c-4 2.09-6.77 8.8-6.77 13.13v192.4a9.43 9.43 0 0 0 5 8.32 9.55 9.55 0 0 0 4.38 1.07h71.42a9.38 9.38 0 0 0 9.39-9.39V258.82q0-18.81 19-27.58 12.16-5.61 33.25-7.63 4.4-.42 9.16-.69c2.06-.12 4.2-.2 6.36-.28a9.39 9.39 0 0 0 8.99-11.01ZM773.54 346.91a12.73 12.73 0 0 1 0 2 18.28 18.28 0 0 1-3.1 9.85 94.58 94.58 0 0 1-8.55-9.34c-10.51-13.23-17.78-29.61-21.73-49a18.25 18.25 0 0 0 10.15 3.66c.61 0 1.25.08 1.89.08h.17c9.9 0 18.32 7.15 19.11 17ZM974.51 155.83a2.58 2.58 0 0 0-.48 0h-8.68v199.5a18.71 18.71 0 0 0 17.28 18.65q1.1-4.42 2-9.08a255.6 255.6 0 0 0 4.37-49.21V170.76a14.94 14.94 0 0 0-14.49-14.93Zm250.69 45.75a102.76 102.76 0 0 0-90.83-53.87q-24.36 0-41.45 10.28a59.37 59.37 0 0 0-11.45 8.93 9.56 9.56 0 0 1-16.36-6.69V80.98a9.51 9.51 0 0 0-10.91-9.44l-71.51 10.45a9.56 9.56 0 0 0-8.17 9.44v55.21a24.16 24.16 0 0 1 23.66 24.12v144.9a266.06 266.06 0 0 1-4.25 49.21h61.65a9.55 9.55 0 0 0 9.54-9.57 9.57 9.57 0 0 1 16.34-6.72q20.15 19.7 53.35 19.7a98.22 98.22 0 0 0 51.5-14.53 107.4 107.4 0 0 0 38.47-39.77q14.31-25.19 14.32-56-.01-31.18-13.9-56.4Zm-117.75 90c-9 0-16.62-3.2-23.31-9.77a31.85 31.85 0 0 1-9.87-23.81v-1.71c0-8.65 3.18-16 9.67-22.34a32.08 32.08 0 0 1 23.51-9.54c9 0 16.59 3.18 23.28 9.75a32 32 0 0 1 9.87 23.84c0 9-3.21 16.71-9.82 23.53a31 31 0 0 1-23.33 10.06Z" class="cls-1"/><path d="M974.51 155.83V355.3a9.56 9.56 0 0 0 9.57 9.57h.56a255.6 255.6 0 0 0 4.37-49.21v-144.9a14.94 14.94 0 0 0-14.5-14.93Zm250.69 45.75a102.76 102.76 0 0 0-90.83-53.87q-24.36 0-41.45 10.28a59.37 59.37 0 0 0-11.45 8.93 9.56 9.56 0 0 1-16.36-6.69V80.98a9.51 9.51 0 0 0-10.91-9.44l-71.51 10.45a9.56 9.56 0 0 0-8.17 9.44v55.21a24.16 24.16 0 0 1 23.66 24.12v144.9a266.06 266.06 0 0 1-4.25 49.21h61.65a9.55 9.55 0 0 0 9.54-9.57 9.57 9.57 0 0 1 16.34-6.72q20.15 19.7 53.35 19.7a98.22 98.22 0 0 0 51.5-14.53 107.4 107.4 0 0 0 38.47-39.77q14.31-25.19 14.32-56-.01-31.18-13.9-56.4Zm-87.83 86.35a40.11 40.11 0 0 1-29.92 12.82q-17.1 0-29.72-12.39a41 41 0 0 1-12.62-30.35v-1.71q0-16.68 12.42-28.87a41 41 0 0 1 29.92-12.17q17.1 0 29.69 12.39a40.88 40.88 0 0 1 12.62 30.36q0 17.07-12.39 29.92Z" class="cls-1"/><path fill="#e6411c" d="M690.13 0c-30.11 0-53.76 24.43-54.53 54.53-.54 21.37 16.37 40.71 31.64 56 2.82 2.82 5.94 5.06 7.45 8 20.53 40.32 5.27 40.32 27.58-.56 1.62-3 5.17-4.85 8.22-7.46 17.81-15.27 33.64-32.92 34.18-56C745.36 24.42 720.25 0 690.13 0Zm-.82 80.71a21.63 21.63 0 1 1 21.63-21.63 21.62 21.62 0 0 1-21.63 21.63Z"/></svg>
